<svg xmlns="http://www.w3.org/2000/svg" viewBox="0 0 180 100">
  <!-- Light warm background -->
  <rect width="180" height="100" rx="20" fill="#FAFAF6"/>

  <!-- C badge (orange) — circle center at (43, 50), scale 0.83 -->
  <g transform="translate(1.5, 8.5) scale(0.83)">
    <circle cx="50" cy="50" r="56" fill="#F26B3A" stroke="#171210" stroke-width="5.5"/>
    <path d="M 82.77 27.06 A 40 40 0 1 0 82.77 72.94 L 69.66 63.77 A 24 24 0 1 1 69.66 36.23 Z"
          fill="white" stroke="#171210" stroke-width="5.5" stroke-linejoin="round"/>
    <circle cx="46" cy="44" r="4" fill="#171210"/>
    <circle cx="58" cy="44" r="4" fill="#171210"/>
  </g>

  <!-- G badge (cream) — circle center at (133, 50), scale 0.83 -->
  <g transform="translate(91.5, 8.5) scale(0.83)">
    <circle cx="50" cy="50" r="56" fill="#ECDBB8" stroke="#171210" stroke-width="5.5"/>
    <path d="M 82.77 27.06 A 40 40 0 1 0 82.77 72.94 L 69.66 63.77 A 24 24 0 1 1 69.66 36.23 Z"
          fill="white" stroke="#171210" stroke-width="5.5" stroke-linejoin="round"/>
    <path d="M 62 50 L 80 50 L 80 68 L 70 68 L 70 60 L 62 60 Z"
          fill="white" stroke="#171210" stroke-width="5.5" stroke-linejoin="round" stroke-linecap="round"/>
    <circle cx="46" cy="40" r="4" fill="#171210"/>
    <circle cx="58" cy="40" r="4" fill="#171210"/>
  </g>
</svg>
